<?xml version="1.0" encoding="utf-8"?>
<!-- Generator: Adobe Illustrator 23.0.0, SVG Export Plug-In . SVG Version: 6.00 Build 0)  -->
<svg version="1.1" id="Layer_1" xmlns="http://www.w3.org/2000/svg" xmlns:xlink="http://www.w3.org/1999/xlink" x="0px" y="0px"
	 viewBox="0 0 197.5 441.4" style="enable-background:new 0 0 197.5 441.4;" xml:space="preserve">
<style type="text/css">
	
		.st0{opacity:0.61;fill:none;stroke:#303D3A;stroke-width:5;stroke-linecap:round;stroke-linejoin:round;enable-background:new    ;}
	.st1{fill:#E07A5F;}
	.st2{fill:#F2CC8F;}
	.st3{fill:#303D3A;}
	.st4{font-family:'Dekko';}
	.st5{font-size:24px;}
</style>
<title>parcours3</title>
<g id="Groupe-route">
	<path id="route" class="st0" d="M97,2.5c0,0,106.3,66,97.5,103.6s-129.9-1.3-133,46.9c-3.1,48.1,134.2,103.9,120.7,145.7
		S35.5,285.1,7.8,320.1s63.4,118.7,63.4,118.7"/>
</g>
<g id="groupe-ellipse">
	<ellipse class="st1" cx="139.6" cy="32.9" rx="9" ry="8.5"/>
	<ellipse id="Ellipse_20" class="st2" cx="65.2" cy="307.1" rx="9" ry="8.5"/>
	<ellipse class="st1" cx="37.8" cy="403.2" rx="9" ry="8.5"/>
	<ellipse class="st1" cx="93.8" cy="202.2" rx="9" ry="8.5"/>
	<ellipse id="Ellipse_20-2" class="st2" cx="175.8" cy="273.1" rx="9" ry="8.5"/>
	<ellipse id="Ellipse_20-3" class="st2" cx="166.8" cy="122.2" rx="9" ry="8.5"/>
</g>
<text transform="matrix(1 0 0 1 37.75 47.7305)" class="st3 st4 st5">Museum</text>
<g>
	<text transform="matrix(1 0 0 1 7 250.4063)" class="st3 st4 st5">Restaurant</text>
</g>
<g>
	<text transform="matrix(1 0 0 1 56.2 388)" class="st3 st4 st5">Bar</text>
</g>
</svg>
