<?xml version="1.0" encoding="utf-8"?>
<!-- Generator: Adobe Illustrator 23.0.3, SVG Export Plug-In . SVG Version: 6.00 Build 0)  -->
<svg version="1.1" id="Layer_1" xmlns="http://www.w3.org/2000/svg" xmlns:xlink="http://www.w3.org/1999/xlink" x="0px" y="0px"
	 viewBox="0 0 229 476" style="enable-background:new 0 0 229 476;" xml:space="preserve">
<style type="text/css">
	
		.st0{opacity:0.61;fill:none;stroke:#303D3A;stroke-width:5;stroke-linecap:round;stroke-linejoin:round;enable-background:new    ;}
	.st1{fill:#E07A5F;}
	.st2{fill:#F2CC8F;}
	.st3{fill:none;}
	.st4{font-family:'Dekko';}
	.st5{font-size:16px;}
	.st6{fill:#303D3A;}
</style>
<title>parcours3</title>
<g id="Groupe-route">
	<path id="route" class="st0" d="M112.1,23.9c0,0,106.3,66,97.5,103.6s-129.9-1.3-133,46.9S210.7,278.3,197.3,320
		S50.6,306.5,22.9,341.5s63.4,118.7,63.4,118.7"/>
</g>
<g id="groupe-ellipse">
	<ellipse class="st1" cx="154.7" cy="54.3" rx="9" ry="8.5"/>
	<ellipse id="Ellipse_20" class="st2" cx="80.3" cy="328.5" rx="9" ry="8.5"/>
	<ellipse class="st1" cx="52.8" cy="424.6" rx="9" ry="8.5"/>
	<ellipse class="st1" cx="108.8" cy="223.6" rx="9" ry="8.5"/>
	<ellipse id="Ellipse_20-2" class="st2" cx="190.9" cy="294.5" rx="9" ry="8.5"/>
	<ellipse id="Ellipse_20-3" class="st2" cx="181.9" cy="143.6" rx="9" ry="8.5"/>
</g>
<rect x="145.9" y="35.6" class="st3" width="200.1" height="21.2"/>
<text transform="matrix(1 0 0 1 145.937 46.9331)"><tspan x="0" y="0" class="st4 st5">        </tspan><tspan x="25.8" y="0" class="st6 st4 st5">Museum</tspan></text>
<rect x="-7.5" y="219.8" class="st3" width="119.7" height="12.1"/>
<text transform="matrix(1 0 0 1 -7.4526 231.1963)"><tspan x="0" y="0" class="st4 st5">                      </tspan><tspan x="71" y="0" class="st6 st4 st5"> Bar</tspan></text>
<rect x="71" y="405.7" class="st3" width="150.1" height="20.5"/>
<text transform="matrix(1 0 0 1 71.021 417.0908)" class="st6 st4 st5">Restaurant</text>
</svg>
